<svg xmlns="http://www.w3.org/2000/svg" width="1280" height="946" viewBox="0 0 1280 946" role="img" font-family="-apple-system, BlinkMacSystemFont, 'Segoe UI', Helvetica, Arial, sans-serif">
<title>A-Game — Kubernetes cluster runtime view (v1)</title>
<desc>Every in-cluster object for A-Game and the allowed traffic between them, inside the a-game namespace. The request path runs consumer to Ingress controller to the api ClusterIP Service to the api Deployment. The api, calc and ingestion workloads reach three data stores (PostgreSQL, Redis, RabbitMQ) through headless Services; each store is a StatefulSet with a PVC. calc calls the Claude API and ingestion calls football-data.org as egress. A side panel holds the ConfigMap, Secrets and per-workload ServiceAccounts, with a prod-only note covering External Secrets, IRSA and the cluster OIDC provider. NetworkPolicy is default-deny and every arrow is one explicitly allowed edge. Runs on k3s locally and targets EKS in production per ADR 0002; matches ADR 0005.</desc>
<defs>
<marker id="arrow" viewBox="0 0 10 10" refX="8" refY="5" markerWidth="6.5" markerHeight="6.5" orient="auto-start-reverse">
<path d="M2 1L8 5L2 9" fill="none" stroke="context-stroke" stroke-width="1.6" stroke-linecap="round" stroke-linejoin="round"/>
</marker>
<style>
.arr  { stroke: #6E6D68; stroke-width: 1.5; fill: none; }
.egr  { stroke: #C0552F; stroke-width: 1.5; fill: none; }
.h    { font-size: 13px; font-weight: 600; }
.s    { font-size: 10.5px; }
.t    { font-size: 9.5px; }
.note { font-size: 10.5px; fill: #5F5E5A; }
.elbl { font-size: 9.5px; fill: #6E6D68; }
</style>
</defs>

<text x="32" y="40" font-size="18" font-weight="700" fill="#2C2C2A">A-Game — Kubernetes cluster runtime (v1)</text>
<text x="32" y="62" font-size="12" fill="#5F5E5A">Every in-cluster object and the allowed traffic between them. k3s locally · EKS as prod target (ADR 0002) · workloads per ADR 0005.</text>

<!-- ============ EXTERNAL ROW ============ -->
<rect x="60" y="90" width="220" height="58" rx="9" fill="#FAECE7" stroke="#C06A45" stroke-width="0.75"/>
<text class="h" fill="#712B13" x="170" y="112" text-anchor="middle">API consumer</text>
<text class="s" fill="#993C1D" x="170" y="130" text-anchor="middle">curl · Postman · your service</text>

<rect x="800" y="90" width="180" height="58" rx="9" fill="#FAECE7" stroke="#C06A45" stroke-width="0.75"/>
<text class="h" fill="#712B13" x="890" y="112" text-anchor="middle">Claude API</text>
<text class="s" fill="#993C1D" x="890" y="130" text-anchor="middle">egress 443</text>

<rect x="1000" y="90" width="220" height="58" rx="9" fill="#FAECE7" stroke="#C06A45" stroke-width="0.75"/>
<text class="h" fill="#712B13" x="1110" y="112" text-anchor="middle">football-data.org</text>
<text class="s" fill="#993C1D" x="1110" y="130" text-anchor="middle">egress 443</text>

<!-- ============ NAMESPACE / CLUSTER BOUNDARY ============ -->
<rect x="40" y="176" width="900" height="700" rx="16" fill="none" stroke="#8A6FD1" stroke-width="0.9" stroke-dasharray="7 5"/>
<text x="58" y="202" font-size="12" font-weight="600" fill="#4B3FA0">Kubernetes cluster — k3s (local) / EKS (prod target)</text>
<text x="58" y="220" font-size="11" fill="#6A5FD6">namespace: a-game</text>

<!-- ============ CONFIG & IDENTITY PLANE ============ -->
<rect x="965" y="176" width="290" height="548" rx="14" fill="#F5F8FB" stroke="#5B7E9C" stroke-width="0.8" stroke-dasharray="4 4"/>
<text x="980" y="202" font-size="12" font-weight="600" fill="#274257">Config, identity &amp; secrets</text>

<rect x="980" y="222" width="260" height="70" rx="8" fill="#EAF1F6" stroke="#5B7E9C" stroke-width="0.6"/>
<text class="h" fill="#274257" x="992" y="242">ConfigMap: app-config</text>
<text class="t" fill="#3E6180" x="992" y="259">league IDs · schedule · model version · base URLs</text>
<text class="t" fill="#3E6180" x="992" y="275">mounted by api · calc · ingestion</text>

<rect x="980" y="304" width="260" height="128" rx="8" fill="#EAF1F6" stroke="#5B7E9C" stroke-width="0.6"/>
<text class="h" fill="#274257" x="992" y="324">Secrets (Kubernetes)</text>
<text class="t" fill="#3E6180" x="992" y="343">db-credentials  (api · calc · ingestion)</text>
<text class="t" fill="#3E6180" x="992" y="360">redis-auth  (api · calc)</text>
<text class="t" fill="#3E6180" x="992" y="377">rabbitmq-auth  (calc · ingestion)</text>
<text class="t" fill="#3E6180" x="992" y="394">claude-api-key  (calc)</text>
<text class="t" fill="#3E6180" x="992" y="411">football-data-token  (ingestion)</text>

<rect x="980" y="444" width="260" height="72" rx="8" fill="#EAF1F6" stroke="#5B7E9C" stroke-width="0.6"/>
<text class="h" fill="#274257" x="992" y="464">ServiceAccounts</text>
<text class="t" fill="#3E6180" x="992" y="482">api-sa · calc-sa · ingestion-sa</text>
<text class="t" fill="#3E6180" x="992" y="499">one identity per workload → least privilege</text>

<rect x="980" y="528" width="260" height="180" rx="8" fill="#EFEDE7" stroke="#9A9890" stroke-width="0.6" stroke-dasharray="4 3"/>
<text class="h" fill="#6B5416" x="992" y="548">EKS only — design-only for now</text>
<text class="t" fill="#5F5E5A" x="992" y="567">External Secrets Operator syncs the</text>
<text class="t" fill="#5F5E5A" x="992" y="582">Secrets above from AWS Secrets Manager.</text>
<text class="t" fill="#5F5E5A" x="992" y="602">IRSA: each ServiceAccount ↔ a scoped</text>
<text class="t" fill="#5F5E5A" x="992" y="617">IAM role, trusted via the cluster</text>
<text class="t" fill="#5F5E5A" x="992" y="632">OIDC provider (the cluster↔AWS bridge).</text>
<text class="t" fill="#5F5E5A" x="992" y="652">Locally: plain Secrets from gitignored .env,</text>
<text class="t" fill="#5F5E5A" x="992" y="667">no OIDC, no Secrets Manager.</text>

<!-- ============ EDGE: INGRESS CONTROLLER ============ -->
<rect x="64" y="240" width="236" height="64" rx="8" fill="#F1EFE8" stroke="#7C7A72" stroke-width="0.6"/>
<text class="h" fill="#2C2C2A" x="182" y="261" text-anchor="middle">Ingress controller</text>
<text class="s" fill="#5F5E5A" x="182" y="278" text-anchor="middle">Traefik (k3s) · AWS LB Controller (EKS)</text>
<text class="t" fill="#5F5E5A" x="182" y="294" text-anchor="middle">Ingress rule: TLS termination · /v1 → api</text>

<!-- api Service -->
<rect x="64" y="336" width="236" height="56" rx="8" fill="#F1EFE8" stroke="#7C7A72" stroke-width="0.6"/>
<text class="h" fill="#2C2C2A" x="182" y="357" text-anchor="middle">api Service — ClusterIP</text>
<text class="s" fill="#5F5E5A" x="182" y="375" text-anchor="middle">stable in-cluster address :8000</text>

<!-- ============ WORKLOADS ROW ============ -->
<rect x="64" y="428" width="236" height="120" rx="8" fill="#EEEDFE" stroke="#6A5FD6" stroke-width="0.7"/>
<text class="h" fill="#3C3489" x="76" y="450">api — Deployment</text>
<text class="s" fill="#534AB7" x="76" y="470">FastAPI · plain reads, no compute</text>
<text class="s" fill="#534AB7" x="76" y="488">SA: api-sa</text>
<text class="s" fill="#534AB7" x="76" y="506">cfg: app-config</text>
<text class="s" fill="#534AB7" x="76" y="524">secrets: db · redis</text>
<text class="t" fill="#8A83C8" x="76" y="541">reached by Ingress → serves consumers</text>

<rect x="374" y="428" width="236" height="120" rx="8" fill="#EEEDFE" stroke="#6A5FD6" stroke-width="0.7"/>
<text class="h" fill="#3C3489" x="386" y="450">calc — Deployment</text>
<text class="s" fill="#534AB7" x="386" y="470">RabbitMQ consumer · Elo/Poisson + Haiku</text>
<text class="s" fill="#534AB7" x="386" y="488">SA: calc-sa</text>
<text class="s" fill="#534AB7" x="386" y="506">cfg: app-config</text>
<text class="s" fill="#534AB7" x="386" y="524">secrets: db · redis · mq · claude</text>
<text class="t" fill="#8A83C8" x="386" y="541">no Service — nothing calls it, it pulls</text>

<rect x="684" y="428" width="236" height="120" rx="8" fill="#EEEDFE" stroke="#6A5FD6" stroke-width="0.7"/>
<text class="h" fill="#3C3489" x="696" y="450">ingestion — CronJob</text>
<text class="s" fill="#534AB7" x="696" y="470">schedule 0 6 * * * · pull → upsert → publish if changed</text>
<text class="s" fill="#534AB7" x="696" y="488">SA: ingestion-sa</text>
<text class="s" fill="#534AB7" x="696" y="506">cfg: app-config</text>
<text class="s" fill="#534AB7" x="696" y="524">secrets: db · mq · football-data</text>
<text class="t" fill="#8A83C8" x="696" y="541">no Service — outbound only</text>

<!-- ============ HEADLESS SERVICES ROW ============ -->
<rect x="64" y="596" width="236" height="56" rx="8" fill="#F1EFE8" stroke="#7C7A72" stroke-width="0.6"/>
<text class="h" fill="#2C2C2A" x="182" y="617" text-anchor="middle">postgres Service — headless</text>
<text class="s" fill="#5F5E5A" x="182" y="635" text-anchor="middle">:5432 · stable per-pod DNS</text>

<rect x="374" y="596" width="236" height="56" rx="8" fill="#F1EFE8" stroke="#7C7A72" stroke-width="0.6"/>
<text class="h" fill="#2C2C2A" x="492" y="617" text-anchor="middle">redis Service — headless</text>
<text class="s" fill="#5F5E5A" x="492" y="635" text-anchor="middle">:6379 · stable per-pod DNS</text>

<rect x="684" y="596" width="236" height="56" rx="8" fill="#F1EFE8" stroke="#7C7A72" stroke-width="0.6"/>
<text class="h" fill="#2C2C2A" x="802" y="617" text-anchor="middle">rabbitmq Service — headless</text>
<text class="s" fill="#5F5E5A" x="802" y="635" text-anchor="middle">:5672 · stable per-pod DNS</text>

<!-- ============ DATA STORES (StatefulSets) ============ -->
<rect x="64" y="684" width="236" height="128" rx="8" fill="#E1F5EE" stroke="#2E8B72" stroke-width="0.7"/>
<text class="h" fill="#085041" x="76" y="706">PostgreSQL — StatefulSet</text>
<text class="s" fill="#0F6E56" x="76" y="726">system of record</text>
<text class="s" fill="#0F6E56" x="76" y="744">facts (JSONB) + predictions (model-versioned)</text>
<rect x="76" y="756" width="150" height="20" rx="5" fill="#CDEBE0" stroke="#2E8B72" stroke-width="0.5"/>
<text class="t" fill="#085041" x="151" y="770" text-anchor="middle">PVC · volumeClaimTemplate</text>
<text class="t" fill="#0F6E56" x="76" y="795">prod host TBD (RDS vs external)</text>

<rect x="374" y="684" width="236" height="128" rx="8" fill="#E1F5EE" stroke="#2E8B72" stroke-width="0.7"/>
<text class="h" fill="#085041" x="386" y="706">Redis — StatefulSet</text>
<text class="s" fill="#0F6E56" x="386" y="726">read-through cache only</text>
<text class="s" fill="#0F6E56" x="386" y="744">removable without design change</text>
<rect x="386" y="756" width="150" height="20" rx="5" fill="#CDEBE0" stroke="#2E8B72" stroke-width="0.5"/>
<text class="t" fill="#085041" x="461" y="770" text-anchor="middle">PVC · volumeClaimTemplate</text>
<text class="t" fill="#0F6E56" x="386" y="795">warmed by the pipeline, not authoritative</text>

<rect x="684" y="684" width="236" height="128" rx="8" fill="#E1F5EE" stroke="#2E8B72" stroke-width="0.7"/>
<text class="h" fill="#085041" x="696" y="706">RabbitMQ — StatefulSet</text>
<text class="s" fill="#0F6E56" x="696" y="726">single broker · jobs + events</text>
<text class="s" fill="#0F6E56" x="696" y="744">learning target (ADR 0005)</text>
<rect x="696" y="756" width="150" height="20" rx="5" fill="#CDEBE0" stroke="#2E8B72" stroke-width="0.5"/>
<text class="t" fill="#085041" x="771" y="770" text-anchor="middle">PVC · volumeClaimTemplate</text>
<text class="t" fill="#0F6E56" x="696" y="795">disable default guest/guest creds</text>

<!-- ============ CLUSTER-WIDE POSTURE NOTE ============ -->
<rect x="56" y="824" width="868" height="42" rx="8" fill="#FBFAF6" stroke="#C9C7BF" stroke-width="0.7"/>
<text class="t" fill="#5F5E5A" x="68" y="841" font-size="10">Pod hardening (all): runAsNonRoot · readOnlyRootFilesystem · drop ALL capabilities · seccomp · resource requests + limits set</text>
<text class="t" fill="#5F5E5A" x="68" y="857" font-size="10">NetworkPolicy: default-deny ingress + egress — every arrow below is one explicitly allowed edge — plus all pods → kube-dns:53 (easy to forget)</text>

<!-- ============ ARROWS ============ -->
<!-- entry chain -->
<line class="arr" x1="172" y1="150" x2="182" y2="238" marker-end="url(#arrow)"/>
<text class="elbl" x="196" y="196">HTTPS + API key</text>
<line class="arr" x1="182" y1="304" x2="182" y2="334" marker-end="url(#arrow)"/>
<line class="arr" x1="182" y1="392" x2="182" y2="426" marker-end="url(#arrow)"/>

<!-- service -> datastore verticals -->
<line class="arr" x1="182" y1="652" x2="182" y2="682" marker-end="url(#arrow)"/>
<line class="arr" x1="492" y1="652" x2="492" y2="682" marker-end="url(#arrow)"/>
<line class="arr" x1="802" y1="652" x2="802" y2="682" marker-end="url(#arrow)"/>

<!-- workload -> service edges (allowed edges) -->
<line class="arr" x1="128" y1="548" x2="128" y2="594" marker-end="url(#arrow)"/>
<path class="arr" d="M296 542 C 360 566, 400 570, 452 594" marker-end="url(#arrow)"/>
<line class="arr" x1="492" y1="548" x2="492" y2="594" marker-end="url(#arrow)"/>
<path class="arr" d="M378 544 C 320 566, 288 572, 250 594" marker-end="url(#arrow)"/>
<path class="arr" d="M606 544 C 664 566, 700 572, 742 594" marker-end="url(#arrow)"/>
<line class="arr" x1="802" y1="548" x2="802" y2="594" marker-end="url(#arrow)"/>
<!-- ingestion -> postgres-svc (long, routed through the clear channel at y=574) -->
<path class="arr" d="M700 548 L 700 574 L 208 574 L 208 594" marker-end="url(#arrow)"/>
<text class="elbl" x="470" y="569">ingestion → postgres</text>

<!-- egress arrows (orange) -->
<path class="egr" d="M560 428 C 640 320, 720 210, 812 150" marker-end="url(#arrow)"/>
<text class="elbl" x="690" y="300" fill="#C0552F">narrate (Haiku)</text>
<path class="egr" d="M846 428 C 940 320, 1010 220, 1086 150" marker-end="url(#arrow)"/>
<text class="elbl" x="965" y="300" fill="#C0552F">fetch fixtures</text>

<!-- pipeline labels -->
<text class="elbl" x="812" y="576" text-anchor="middle">publish job</text>
<text class="elbl" x="700" y="620" text-anchor="middle" fill="#6A5FD6">consume</text>

<!-- ============ LEGEND ============ -->
<rect x="40" y="892" width="18" height="14" rx="3" fill="#EEEDFE" stroke="#6A5FD6" stroke-width="0.6"/>
<text class="s" fill="#444441" x="64" y="903">Workloads (Deployments · CronJob)</text>
<rect x="290" y="892" width="18" height="14" rx="3" fill="#F1EFE8" stroke="#7C7A72" stroke-width="0.6"/>
<text class="s" fill="#444441" x="314" y="903">Edge &amp; Services (Ingress · ClusterIP · headless)</text>
<rect x="610" y="892" width="18" height="14" rx="3" fill="#E1F5EE" stroke="#2E8B72" stroke-width="0.6"/>
<text class="s" fill="#444441" x="634" y="903">Data stores (StatefulSets + PVC)</text>
<rect x="850" y="892" width="18" height="14" rx="3" fill="#EAF1F6" stroke="#5B7E9C" stroke-width="0.6"/>
<text class="s" fill="#444441" x="874" y="903">Config &amp; identity</text>
<rect x="1010" y="892" width="18" height="14" rx="3" fill="#FAECE7" stroke="#C06A45" stroke-width="0.6"/>
<text class="s" fill="#444441" x="1034" y="903">External (clients · egress)</text>
<line class="egr" x1="40" y1="928" x2="70" y2="928" marker-end="url(#arrow)"/>
<text class="s" fill="#444441" x="78" y="932">orange arrow = allowed egress to the internet</text>
<line class="arr" x1="360" y1="928" x2="390" y2="928" marker-end="url(#arrow)"/>
<text class="s" fill="#444441" x="398" y="932">grey arrow = allowed in-cluster edge (all else denied)</text>
</svg>
